<?xml version="1.0" encoding="UTF-8"?>
<svg xmlns="http://www.w3.org/2000/svg" xmlns:xlink="http://www.w3.org/1999/xlink" viewBox="0 0 48 48" width="48px" height="48px">
<g id="surface58293476">
<path style=" stroke:none;fill-rule:nonzero;fill:rgba(25, 118, 210, 0.8);fill-opacity:0;" d="M 42 37 C 42 39.761719 39.761719 42 37 42 L 11 42 C 8.238281 42 6 39.761719 6 37 L 6 11 C 6 8.238281 8.238281 6 11 6 L 37 6 C 39.761719 6 42 8.238281 42 11 Z M 42 37 "/>
<path style=" stroke:none;fill-rule:nonzero;fill:rgb(100%,100%,100%);fill-opacity:1;" d="M 35.9375 18.039062 C 35.984375 17.890625 36.003906 17.75 36 17.625 C 35.984375 17.261719 35.734375 17 35.148438 17 L 32.53125 17 C 31.871094 17 31.566406 17.398438 31.386719 17.800781 C 31.386719 17.800781 29.753906 21.160156 27.875 23.375 C 27.265625 24.015625 26.953125 24 26.625 24 C 26.445312 24 26 23.785156 26 23.199219 L 26 18.015625 C 26 17.320312 25.828125 17 25.269531 17 L 20.617188 17 C 20.210938 17 20 17.320312 20 17.640625 C 20 18.308594 20.898438 18.46875 21 20.335938 L 21 23.960938 C 21 24.839844 20.847656 25 20.515625 25 C 19.628906 25 17.875 22 16.703125 18.066406 C 16.449219 17.292969 16.195312 17 15.53125 17 L 12.890625 17 C 12.128906 17 12 17.375 12 17.773438 C 12 18.496094 12.601562 22.394531 15.875 26.875 C 18.25 30.125 21.378906 32 24.148438 32 C 25.828125 32 26 31.574219 26 30.90625 L 26 27.933594 C 26 27.132812 26.183594 27 26.71875 27 C 27.097656 27 27.875 27.25 29.375 29 C 31.105469 31.019531 31.417969 32 32.410156 32 L 35.027344 32 C 35.636719 32 35.984375 31.746094 36 31.25 C 36.003906 31.125 35.984375 30.984375 35.945312 30.824219 C 35.75 30.25 34.859375 28.84375 33.75 27.5 C 33.136719 26.757812 32.527344 26.019531 32.25 25.621094 C 32.0625 25.359375 31.992188 25.175781 32 25 C 32.007812 24.816406 32.105469 24.640625 32.25 24.394531 C 32.222656 24.394531 35.605469 19.640625 35.9375 18.039062 Z M 35.9375 18.039062 "/>
</g>
</svg>
